<?xml version="1.0" encoding="utf-8"?>
<!-- Generator: Adobe Illustrator 19.1.0, SVG Export Plug-In . SVG Version: 6.00 Build 0)  -->
<svg version="1.1" id="Layer_1" xmlns="http://www.w3.org/2000/svg" xmlns:xlink="http://www.w3.org/1999/xlink" x="0px" y="0px"
	 viewBox="0 0 122 51.6" style="enable-background:new 0 0 122 51.6;" xml:space="preserve">
<style type="text/css">
	.st0{fill:#405865;}
</style>
<g>
	<path class="st0" d="M61,0C38.9,0,17.8,8.4,0,24.4l0.1,0.1h9c4.6-3.6,9.5-6.7,14.5-9.3c0.7-0.4,1.5,0.2,1.5,0.9v8.4h1.8V14.2
		c0-0.4,0.2-0.8,0.6-0.9c0,0,0,0,0,0c0.7-0.3,1.5,0.2,1.5,0.9v10.3h1.8V12.5c0-0.4,0.3-0.8,0.7-1c3-1.2,6-2.2,9.1-3
		c0.7-0.2,1.3,0.3,1.3,1v14.9h1.8V8.6c0-0.5,0.3-0.9,0.8-1c0,0,0,0,0,0c0.6-0.1,1.2,0.3,1.2,1v15.8h1.8V7.9c0-0.5,0.4-0.9,0.9-1
		c3-0.5,6-0.8,9.1-1c0.6,0,1.1,0.4,1.1,1v17.5H60V6.9c0-0.6,0.5-1,1-1c0,0,0,0,0,0c0,0,0,0,0,0c0.6,0,1,0.5,1,1v17.6h1.8V7
		c0-0.6,0.5-1.1,1.1-1c3.1,0.1,6.1,0.5,9.1,1c0.5,0.1,0.9,0.5,0.9,1v16.5h1.8V8.6c0-0.7,0.6-1.1,1.2-1c0,0,0,0,0,0
		c0.5,0.1,0.8,0.5,0.8,1v15.8h1.8V9.6c0-0.7,0.6-1.2,1.3-1c3.1,0.8,6.1,1.8,9.1,3c0.4,0.2,0.7,0.5,0.7,1v11.9h1.8V14.2
		c0-0.7,0.8-1.2,1.5-0.9c0,0,0,0,0,0c0.4,0.2,0.6,0.5,0.6,0.9v10.3H97V16c0-0.8,0.8-1.3,1.5-0.9c5,2.6,9.8,5.7,14.5,9.3h9l0.1-0.1
		C104.2,8.4,83.1,0,61,0z"/>
	<g>
		<g>
			<path class="st0" d="M8.8,43.1H6.2v5.1c0,0.6,0.1,1,0.3,1.3c0.2,0.3,0.6,0.4,1.1,0.4c0.2,0,0.4,0,0.6-0.1c0.2,0,0.4-0.1,0.6-0.2
				l0.1,1.6c-0.2,0.1-0.5,0.1-0.8,0.2c-0.3,0-0.6,0.1-0.9,0.1c-0.9,0-1.6-0.3-2.1-0.8c-0.5-0.5-0.7-1.3-0.7-2.3v-5.3H2.4v-1.6h1.9
				v-2.8h1.9v2.8h2.6V43.1z"/>
			<path class="st0" d="M19.7,46.3c0,0.1,0,0.2,0,0.3s0,0.2,0,0.3h-7.8c0,0.4,0.1,0.8,0.3,1.2c0.2,0.4,0.4,0.7,0.7,0.9
				c0.3,0.3,0.6,0.5,1,0.6c0.4,0.2,0.8,0.2,1.2,0.2c0.7,0,1.2-0.1,1.7-0.4c0.5-0.3,0.9-0.6,1.1-1.1l1.4,1.1
				c-0.5,0.7-1.1,1.2-1.9,1.5c-0.7,0.3-1.5,0.5-2.4,0.5c-0.7,0-1.4-0.1-2.1-0.4c-0.6-0.2-1.2-0.6-1.6-1c-0.5-0.4-0.8-1-1.1-1.6
				c-0.3-0.6-0.4-1.3-0.4-2.1c0-0.8,0.1-1.5,0.4-2.1c0.3-0.6,0.6-1.2,1.1-1.6c0.5-0.5,1-0.8,1.6-1.1c0.6-0.3,1.3-0.4,2-0.4
				c0.7,0,1.4,0.1,2,0.4c0.6,0.2,1.1,0.6,1.5,1c0.4,0.4,0.7,1,0.9,1.6C19.6,44.8,19.7,45.6,19.7,46.3z M17.8,45.6
				c0-0.4-0.1-0.7-0.2-1.1c-0.1-0.3-0.3-0.6-0.5-0.9c-0.2-0.2-0.5-0.4-0.8-0.6c-0.3-0.1-0.7-0.2-1.2-0.2c-0.4,0-0.8,0.1-1.2,0.2
				c-0.4,0.1-0.7,0.3-1,0.6c-0.3,0.2-0.5,0.5-0.7,0.9c-0.2,0.3-0.3,0.7-0.3,1.1H17.8z"/>
			<path class="st0" d="M28.3,45c0-0.7-0.2-1.3-0.7-1.6c-0.4-0.4-1-0.5-1.8-0.5c-0.6,0-1.1,0.1-1.6,0.3c-0.5,0.2-0.9,0.5-1.2,0.8
				l-1-1.2c0.5-0.5,1.1-0.8,1.8-1.1c0.7-0.3,1.4-0.4,2.2-0.4c0.7,0,1.3,0.1,1.8,0.3c0.5,0.2,0.9,0.5,1.3,0.8
				c0.3,0.3,0.6,0.8,0.7,1.2c0.2,0.5,0.2,1,0.2,1.5v4.3c0,0.3,0,0.7,0,1c0,0.4,0.1,0.7,0.1,0.9h-1.8c-0.1-0.5-0.2-0.9-0.2-1.4h-0.1
				c-0.4,0.5-0.8,0.9-1.4,1.2c-0.5,0.3-1.2,0.4-1.9,0.4c-0.4,0-0.8-0.1-1.2-0.2c-0.4-0.1-0.8-0.3-1.1-0.5c-0.3-0.2-0.6-0.5-0.9-0.9
				s-0.3-0.9-0.3-1.4c0-0.7,0.2-1.3,0.6-1.8c0.4-0.4,0.9-0.8,1.6-1c0.6-0.2,1.4-0.4,2.2-0.4c0.8-0.1,1.6-0.1,2.5-0.1V45z M27.8,46.6
				c-0.5,0-1,0-1.5,0.1c-0.5,0-1,0.1-1.4,0.2c-0.4,0.1-0.8,0.3-1,0.6c-0.3,0.2-0.4,0.6-0.4,1c0,0.3,0.1,0.5,0.2,0.7
				c0.1,0.2,0.3,0.4,0.5,0.5c0.2,0.1,0.4,0.2,0.6,0.3c0.2,0,0.5,0.1,0.7,0.1c0.9,0,1.6-0.3,2.1-0.8c0.5-0.5,0.7-1.2,0.7-2.1v-0.5
				H27.8z"/>
			<path class="st0" d="M40,44c-0.2-0.3-0.5-0.6-0.9-0.8c-0.4-0.2-0.9-0.3-1.3-0.3c-0.5,0-1,0.1-1.4,0.3c-0.4,0.2-0.7,0.5-1,0.8
				c-0.3,0.3-0.5,0.7-0.6,1.1c-0.1,0.4-0.2,0.9-0.2,1.3c0,0.5,0.1,0.9,0.2,1.3c0.1,0.4,0.4,0.8,0.6,1.1c0.3,0.3,0.6,0.6,1,0.8
				c0.4,0.2,0.9,0.3,1.4,0.3c0.5,0,0.9-0.1,1.4-0.3c0.4-0.2,0.7-0.5,1-0.8l1.3,1.2c-0.4,0.5-0.9,0.9-1.6,1.1
				c-0.6,0.3-1.3,0.4-2.1,0.4c-0.8,0-1.5-0.1-2.1-0.4c-0.6-0.2-1.2-0.6-1.7-1c-0.5-0.4-0.8-1-1.1-1.6c-0.3-0.6-0.4-1.3-0.4-2.1
				c0-0.8,0.1-1.5,0.4-2.1c0.3-0.6,0.6-1.2,1.1-1.6c0.5-0.5,1-0.8,1.7-1.1c0.6-0.2,1.3-0.4,2.1-0.4c0.7,0,1.4,0.1,2.1,0.4
				c0.7,0.3,1.2,0.7,1.6,1.2L40,44z"/>
			<path class="st0" d="M45.2,43c0.2-0.5,0.6-0.9,1.2-1.2c0.6-0.3,1.2-0.5,1.9-0.5c0.6,0,1.2,0.1,1.6,0.3c0.5,0.2,0.8,0.5,1.1,0.9
				c0.3,0.4,0.5,0.8,0.7,1.3c0.1,0.5,0.2,1,0.2,1.6v6.1H50v-5.4c0-0.4,0-0.8-0.1-1.1c-0.1-0.4-0.2-0.7-0.3-1s-0.4-0.5-0.7-0.7
				c-0.3-0.2-0.7-0.2-1.1-0.2c-0.8,0-1.4,0.3-1.9,0.9c-0.5,0.6-0.7,1.4-0.7,2.4v5.2h-1.9V35.7h1.9L45.2,43L45.2,43z"/>
			<path class="st0" d="M66.5,45c0-0.7-0.2-1.3-0.7-1.6c-0.4-0.4-1-0.5-1.8-0.5c-0.6,0-1.1,0.1-1.6,0.3c-0.5,0.2-0.9,0.5-1.2,0.8
				l-1-1.2c0.5-0.5,1.1-0.8,1.8-1.1c0.7-0.3,1.4-0.4,2.2-0.4c0.7,0,1.3,0.1,1.8,0.3c0.5,0.2,0.9,0.5,1.3,0.8
				c0.3,0.3,0.6,0.8,0.7,1.2c0.2,0.5,0.2,1,0.2,1.5v4.3c0,0.3,0,0.7,0,1c0,0.4,0.1,0.7,0.1,0.9h-1.8c-0.1-0.5-0.2-0.9-0.2-1.4h-0.1
				c-0.4,0.5-0.8,0.9-1.4,1.2c-0.5,0.3-1.2,0.4-1.9,0.4c-0.4,0-0.8-0.1-1.2-0.2c-0.4-0.1-0.8-0.3-1.1-0.5c-0.3-0.2-0.6-0.5-0.9-0.9
				c-0.2-0.4-0.3-0.9-0.3-1.4c0-0.7,0.2-1.3,0.6-1.8c0.4-0.4,0.9-0.8,1.6-1c0.6-0.2,1.4-0.4,2.2-0.4c0.8-0.1,1.6-0.1,2.5-0.1V45z
				 M66,46.6c-0.5,0-1,0-1.5,0.1c-0.5,0-1,0.1-1.4,0.2c-0.4,0.1-0.8,0.3-1,0.6c-0.3,0.2-0.4,0.6-0.4,1c0,0.3,0.1,0.5,0.2,0.7
				c0.1,0.2,0.3,0.4,0.5,0.5c0.2,0.1,0.4,0.2,0.6,0.3c0.2,0,0.5,0.1,0.7,0.1c0.9,0,1.6-0.3,2.1-0.8c0.5-0.5,0.7-1.2,0.7-2.1v-0.5H66
				z"/>
			<path class="st0" d="M78.2,44c-0.2-0.3-0.5-0.6-0.9-0.8c-0.4-0.2-0.9-0.3-1.3-0.3c-0.5,0-1,0.1-1.4,0.3c-0.4,0.2-0.7,0.5-1,0.8
				c-0.3,0.3-0.5,0.7-0.6,1.1c-0.1,0.4-0.2,0.9-0.2,1.3c0,0.5,0.1,0.9,0.2,1.3c0.1,0.4,0.4,0.8,0.6,1.1c0.3,0.3,0.6,0.6,1,0.8
				C75,49.9,75.5,50,76,50c0.5,0,0.9-0.1,1.4-0.3c0.4-0.2,0.7-0.5,1-0.8l1.3,1.2c-0.4,0.5-0.9,0.9-1.6,1.1c-0.6,0.3-1.3,0.4-2.1,0.4
				c-0.8,0-1.5-0.1-2.1-0.4c-0.6-0.2-1.2-0.6-1.7-1c-0.5-0.4-0.8-1-1.1-1.6c-0.3-0.6-0.4-1.3-0.4-2.1c0-0.8,0.1-1.5,0.4-2.1
				c0.3-0.6,0.6-1.2,1.1-1.6c0.5-0.5,1-0.8,1.7-1.1c0.6-0.2,1.3-0.4,2.1-0.4c0.7,0,1.4,0.1,2.1,0.4c0.7,0.3,1.2,0.7,1.6,1.2L78.2,44
				z"/>
			<path class="st0" d="M88.1,44c-0.2-0.3-0.5-0.6-0.9-0.8c-0.4-0.2-0.9-0.3-1.3-0.3c-0.5,0-1,0.1-1.4,0.3c-0.4,0.2-0.7,0.5-1,0.8
				c-0.3,0.3-0.5,0.7-0.6,1.1c-0.1,0.4-0.2,0.9-0.2,1.3c0,0.5,0.1,0.9,0.2,1.3c0.1,0.4,0.4,0.8,0.6,1.1c0.3,0.3,0.6,0.6,1,0.8
				c0.4,0.2,0.9,0.3,1.4,0.3c0.5,0,0.9-0.1,1.4-0.3c0.4-0.2,0.7-0.5,1-0.8l1.3,1.2c-0.4,0.5-0.9,0.9-1.6,1.1
				c-0.6,0.3-1.3,0.4-2.1,0.4c-0.8,0-1.5-0.1-2.1-0.4c-0.6-0.2-1.2-0.6-1.7-1c-0.5-0.4-0.8-1-1.1-1.6c-0.3-0.6-0.4-1.3-0.4-2.1
				c0-0.8,0.1-1.5,0.4-2.1c0.3-0.6,0.6-1.2,1.1-1.6c0.5-0.5,1-0.8,1.7-1.1c0.6-0.2,1.3-0.4,2.1-0.4c0.7,0,1.4,0.1,2.1,0.4
				c0.7,0.3,1.2,0.7,1.6,1.2L88.1,44z"/>
			<path class="st0" d="M100.3,46.3c0,0.1,0,0.2,0,0.3s0,0.2,0,0.3h-7.8c0,0.4,0.1,0.8,0.3,1.2c0.2,0.4,0.4,0.7,0.7,0.9
				c0.3,0.3,0.6,0.5,1,0.6c0.4,0.2,0.8,0.2,1.2,0.2c0.7,0,1.2-0.1,1.7-0.4c0.5-0.3,0.9-0.6,1.1-1.1l1.4,1.1
				c-0.5,0.7-1.1,1.2-1.9,1.5c-0.7,0.3-1.5,0.5-2.4,0.5c-0.7,0-1.4-0.1-2.1-0.4c-0.6-0.2-1.2-0.6-1.6-1c-0.5-0.4-0.8-1-1.1-1.6
				c-0.3-0.6-0.4-1.3-0.4-2.1c0-0.8,0.1-1.5,0.4-2.1c0.3-0.6,0.6-1.2,1.1-1.6c0.5-0.5,1-0.8,1.6-1.1c0.6-0.3,1.3-0.4,2-0.4
				c0.7,0,1.4,0.1,2,0.4c0.6,0.2,1.1,0.6,1.5,1c0.4,0.4,0.7,1,0.9,1.6S100.3,45.6,100.3,46.3z M98.3,45.6c0-0.4-0.1-0.7-0.2-1.1
				c-0.1-0.3-0.3-0.6-0.5-0.9c-0.2-0.2-0.5-0.4-0.8-0.6c-0.3-0.1-0.7-0.2-1.2-0.2c-0.4,0-0.8,0.1-1.2,0.2c-0.4,0.1-0.7,0.3-1,0.6
				s-0.5,0.5-0.7,0.9c-0.2,0.3-0.3,0.7-0.3,1.1H98.3z"/>
			<path class="st0" d="M108.1,44c-0.2-0.4-0.5-0.7-0.9-0.9c-0.4-0.2-0.8-0.3-1.3-0.3c-0.2,0-0.4,0-0.7,0.1c-0.2,0-0.4,0.1-0.6,0.2
				c-0.2,0.1-0.3,0.2-0.4,0.4c-0.1,0.2-0.2,0.4-0.2,0.6c0,0.4,0.2,0.7,0.6,0.9c0.4,0.2,0.9,0.4,1.7,0.5c0.5,0.1,0.9,0.2,1.3,0.4
				c0.4,0.2,0.7,0.3,1,0.6c0.3,0.2,0.5,0.5,0.7,0.8c0.2,0.3,0.2,0.7,0.2,1.1c0,0.6-0.1,1.1-0.3,1.5c-0.2,0.4-0.5,0.7-0.9,1
				c-0.4,0.3-0.8,0.4-1.3,0.5c-0.5,0.1-1,0.2-1.4,0.2c-0.7,0-1.5-0.1-2.2-0.4c-0.7-0.3-1.3-0.7-1.8-1.3l1.4-1.2
				c0.3,0.4,0.6,0.7,1.1,1c0.5,0.3,1,0.4,1.5,0.4c0.2,0,0.5,0,0.7-0.1c0.2,0,0.4-0.1,0.6-0.2c0.2-0.1,0.3-0.3,0.4-0.4
				c0.1-0.2,0.2-0.4,0.2-0.7c0-0.5-0.2-0.8-0.7-1c-0.4-0.2-1.1-0.4-1.9-0.6c-0.3-0.1-0.7-0.2-1-0.3c-0.3-0.1-0.6-0.3-0.9-0.5
				c-0.3-0.2-0.5-0.5-0.7-0.8c-0.2-0.3-0.3-0.7-0.3-1.1c0-0.5,0.1-1,0.3-1.4c0.2-0.4,0.5-0.7,0.8-0.9c0.3-0.2,0.7-0.4,1.2-0.5
				c0.4-0.1,0.9-0.2,1.4-0.2c0.7,0,1.4,0.1,2,0.4c0.7,0.3,1.2,0.7,1.5,1.2L108.1,44z"/>
			<path class="st0" d="M117.4,44c-0.2-0.4-0.5-0.7-0.9-0.9c-0.4-0.2-0.8-0.3-1.3-0.3c-0.2,0-0.4,0-0.7,0.1c-0.2,0-0.4,0.1-0.6,0.2
				c-0.2,0.1-0.3,0.2-0.4,0.4c-0.1,0.2-0.2,0.4-0.2,0.6c0,0.4,0.2,0.7,0.6,0.9c0.4,0.2,0.9,0.4,1.7,0.5c0.5,0.1,0.9,0.2,1.3,0.4
				c0.4,0.2,0.7,0.3,1,0.6c0.3,0.2,0.5,0.5,0.7,0.8c0.2,0.3,0.2,0.7,0.2,1.1c0,0.6-0.1,1.1-0.3,1.5c-0.2,0.4-0.5,0.7-0.9,1
				c-0.4,0.3-0.8,0.4-1.3,0.5c-0.5,0.1-1,0.2-1.4,0.2c-0.7,0-1.5-0.1-2.2-0.4c-0.7-0.3-1.3-0.7-1.8-1.3l1.4-1.2
				c0.3,0.4,0.6,0.7,1.1,1c0.5,0.3,1,0.4,1.5,0.4c0.2,0,0.5,0,0.7-0.1c0.2,0,0.4-0.1,0.6-0.2c0.2-0.1,0.3-0.3,0.4-0.4
				c0.1-0.2,0.2-0.4,0.2-0.7c0-0.5-0.2-0.8-0.7-1c-0.4-0.2-1.1-0.4-1.9-0.6c-0.3-0.1-0.7-0.2-1-0.3c-0.3-0.1-0.6-0.3-0.9-0.5
				c-0.3-0.2-0.5-0.5-0.7-0.8c-0.2-0.3-0.3-0.7-0.3-1.1c0-0.5,0.1-1,0.3-1.4c0.2-0.4,0.5-0.7,0.8-0.9c0.3-0.2,0.7-0.4,1.2-0.5
				c0.4-0.1,0.9-0.2,1.4-0.2c0.7,0,1.4,0.1,2,0.4c0.7,0.3,1.2,0.7,1.5,1.2L117.4,44z"/>
		</g>
	</g>
</g>
</svg>
