<svg enable-background="new 0 0 122 51.6" viewBox="0 0 122 51.6" xmlns="http://www.w3.org/2000/svg"><g fill="#405865"><path d="m61 0c-22.1 0-43.2 8.4-61 24.4l.1.1h9c4.6-3.6 9.5-6.7 14.5-9.3.7-.4 1.5.2 1.5.9v8.4h1.8v-10.3c0-.4.2-.8.6-.9.7-.3 1.5.2 1.5.9v10.3h1.8v-12c0-.4.3-.8.7-1 3-1.2 6-2.2 9.1-3 .7-.2 1.3.3 1.3 1v14.9h1.8v-15.8c0-.5.3-.9.8-1 .6-.1 1.2.3 1.2 1v15.8h1.8v-16.5c0-.5.4-.9.9-1 3-.5 6-.8 9.1-1 .6 0 1.1.4 1.1 1v17.5h1.4v-17.5c0-.6.5-1 1-1 .6 0 1 .5 1 1v17.6h1.8v-17.5c0-.6.5-1.1 1.1-1 3.1.1 6.1.5 9.1 1 .5.1.9.5.9 1v16.5h1.8v-15.9c0-.7.6-1.1 1.2-1 .5.1.8.5.8 1v15.8h1.8v-14.8c0-.7.6-1.2 1.3-1 3.1.8 6.1 1.8 9.1 3 .4.2.7.5.7 1v11.9h1.8v-10.3c0-.7.8-1.2 1.5-.9.4.2.6.5.6.9v10.3h1.5v-8.5c0-.8.8-1.3 1.5-.9 5 2.6 9.8 5.7 14.5 9.3h9l.1-.1c-17.9-15.9-39-24.3-61.1-24.3z"/><path d="m8.8 43.1h-2.6v5.1c0 .6.1 1 .3 1.3s.6.4 1.1.4c.2 0 .4 0 .6-.1.2 0 .4-.1.6-.2l.1 1.6c-.2.1-.5.1-.8.2-.3 0-.6.1-.9.1-.9 0-1.6-.3-2.1-.8s-.7-1.3-.7-2.3v-5.3h-2v-1.6h1.9v-2.8h1.9v2.8h2.6z"/><path d="m19.7 46.3v.3s0 .2 0 .3h-7.8c0 .4.1.8.3 1.2s.4.7.7.9c.3.3.6.5 1 .6.4.2.8.2 1.2.2.7 0 1.2-.1 1.7-.4s.9-.6 1.1-1.1l1.4 1.1c-.5.7-1.1 1.2-1.9 1.5-.7.3-1.5.5-2.4.5-.7 0-1.4-.1-2.1-.4-.6-.2-1.2-.6-1.6-1-.5-.4-.8-1-1.1-1.6s-.4-1.3-.4-2.1.1-1.5.4-2.1.6-1.2 1.1-1.6c.5-.5 1-.8 1.6-1.1s1.3-.4 2-.4 1.4.1 2 .4c.6.2 1.1.6 1.5 1s.7 1 .9 1.6c.3.7.4 1.5.4 2.2zm-1.9-.7c0-.4-.1-.7-.2-1.1-.1-.3-.3-.6-.5-.9-.2-.2-.5-.4-.8-.6-.3-.1-.7-.2-1.2-.2-.4 0-.8.1-1.2.2s-.7.3-1 .6c-.3.2-.5.5-.7.9-.2.3-.3.7-.3 1.1z"/><path d="m28.3 45c0-.7-.2-1.3-.7-1.6-.4-.4-1-.5-1.8-.5-.6 0-1.1.1-1.6.3s-.9.5-1.2.8l-1-1.2c.5-.5 1.1-.8 1.8-1.1s1.4-.4 2.2-.4c.7 0 1.3.1 1.8.3s.9.5 1.3.8c.3.3.6.8.7 1.2.2.5.2 1 .2 1.5v4.3 1c0 .4.1.7.1.9h-1.8c-.1-.5-.2-.9-.2-1.4h-.1c-.4.5-.8.9-1.4 1.2-.5.3-1.2.4-1.9.4-.4 0-.8-.1-1.2-.2s-.8-.3-1.1-.5-.6-.5-.9-.9-.3-.9-.3-1.4c0-.7.2-1.3.6-1.8.4-.4.9-.8 1.6-1 .6-.2 1.4-.4 2.2-.4.8-.1 1.6-.1 2.5-.1v-.2zm-.5 1.6c-.5 0-1 0-1.5.1-.5 0-1 .1-1.4.2s-.8.3-1 .6c-.3.2-.4.6-.4 1 0 .3.1.5.2.7s.3.4.5.5.4.2.6.3c.2 0 .5.1.7.1.9 0 1.6-.3 2.1-.8s.7-1.2.7-2.1v-.5h-.5z"/><path d="m40 44c-.2-.3-.5-.6-.9-.8s-.9-.3-1.3-.3c-.5 0-1 .1-1.4.3s-.7.5-1 .8-.5.7-.6 1.1-.2.9-.2 1.3c0 .5.1.9.2 1.3s.4.8.6 1.1c.3.3.6.6 1 .8s.9.3 1.4.3.9-.1 1.4-.3c.4-.2.7-.5 1-.8l1.3 1.2c-.4.5-.9.9-1.6 1.1-.6.3-1.3.4-2.1.4s-1.5-.1-2.1-.4c-.6-.2-1.2-.6-1.7-1s-.8-1-1.1-1.6-.4-1.3-.4-2.1.1-1.5.4-2.1.6-1.2 1.1-1.6c.5-.5 1-.8 1.7-1.1.6-.2 1.3-.4 2.1-.4.7 0 1.4.1 2.1.4s1.2.7 1.6 1.2z"/><path d="m45.2 43c.2-.5.6-.9 1.2-1.2s1.2-.5 1.9-.5c.6 0 1.2.1 1.6.3.5.2.8.5 1.1.9s.5.8.7 1.3c.1.5.2 1 .2 1.6v6.1h-1.9v-5.4c0-.4 0-.8-.1-1.1-.1-.4-.2-.7-.3-1s-.4-.5-.7-.7-.7-.2-1.1-.2c-.8 0-1.4.3-1.9.9s-.7 1.4-.7 2.4v5.2h-1.9v-15.9h1.9z"/><path d="m66.5 45c0-.7-.2-1.3-.7-1.6-.4-.4-1-.5-1.8-.5-.6 0-1.1.1-1.6.3s-.9.5-1.2.8l-1-1.2c.5-.5 1.1-.8 1.8-1.1s1.4-.4 2.2-.4c.7 0 1.3.1 1.8.3s.9.5 1.3.8c.3.3.6.8.7 1.2.2.5.2 1 .2 1.5v4.3 1c0 .4.1.7.1.9h-1.8c-.1-.5-.2-.9-.2-1.4h-.1c-.4.5-.8.9-1.4 1.2-.5.3-1.2.4-1.9.4-.4 0-.8-.1-1.2-.2s-.8-.3-1.1-.5-.6-.5-.9-.9c-.2-.4-.3-.9-.3-1.4 0-.7.2-1.3.6-1.8.4-.4.9-.8 1.6-1 .6-.2 1.4-.4 2.2-.4.8-.1 1.6-.1 2.5-.1v-.2zm-.5 1.6c-.5 0-1 0-1.5.1-.5 0-1 .1-1.4.2s-.8.3-1 .6c-.3.2-.4.6-.4 1 0 .3.1.5.2.7s.3.4.5.5.4.2.6.3c.2 0 .5.1.7.1.9 0 1.6-.3 2.1-.8s.7-1.2.7-2.1v-.5h-.5z"/><path d="m78.2 44c-.2-.3-.5-.6-.9-.8s-.9-.3-1.3-.3c-.5 0-1 .1-1.4.3s-.7.5-1 .8-.5.7-.6 1.1-.2.9-.2 1.3c0 .5.1.9.2 1.3s.4.8.6 1.1c.3.3.6.6 1 .8.4.3.9.4 1.4.4s.9-.1 1.4-.3c.4-.2.7-.5 1-.8l1.3 1.2c-.4.5-.9.9-1.6 1.1-.6.3-1.3.4-2.1.4s-1.5-.1-2.1-.4c-.6-.2-1.2-.6-1.7-1s-.8-1-1.1-1.6-.4-1.3-.4-2.1.1-1.5.4-2.1.6-1.2 1.1-1.6c.5-.5 1-.8 1.7-1.1.6-.2 1.3-.4 2.1-.4.7 0 1.4.1 2.1.4s1.2.7 1.6 1.2z"/><path d="m88.1 44c-.2-.3-.5-.6-.9-.8s-.9-.3-1.3-.3c-.5 0-1 .1-1.4.3s-.7.5-1 .8-.5.7-.6 1.1-.2.9-.2 1.3c0 .5.1.9.2 1.3s.4.8.6 1.1c.3.3.6.6 1 .8s.9.3 1.4.3.9-.1 1.4-.3c.4-.2.7-.5 1-.8l1.3 1.2c-.4.5-.9.9-1.6 1.1-.6.3-1.3.4-2.1.4s-1.5-.1-2.1-.4c-.6-.2-1.2-.6-1.7-1s-.8-1-1.1-1.6-.4-1.3-.4-2.1.1-1.5.4-2.1.6-1.2 1.1-1.6c.5-.5 1-.8 1.7-1.1.6-.2 1.3-.4 2.1-.4.7 0 1.4.1 2.1.4s1.2.7 1.6 1.2z"/><path d="m100.3 46.3v.3s0 .2 0 .3h-7.8c0 .4.1.8.3 1.2s.4.7.7.9c.3.3.6.5 1 .6.4.2.8.2 1.2.2.7 0 1.2-.1 1.7-.4s.9-.6 1.1-1.1l1.4 1.1c-.5.7-1.1 1.2-1.9 1.5-.7.3-1.5.5-2.4.5-.7 0-1.4-.1-2.1-.4-.6-.2-1.2-.6-1.6-1-.5-.4-.8-1-1.1-1.6s-.4-1.3-.4-2.1.1-1.5.4-2.1.6-1.2 1.1-1.6c.5-.5 1-.8 1.6-1.1s1.3-.4 2-.4 1.4.1 2 .4c.6.2 1.1.6 1.5 1s.7 1 .9 1.6.4 1.5.4 2.2zm-2-.7c0-.4-.1-.7-.2-1.1-.1-.3-.3-.6-.5-.9-.2-.2-.5-.4-.8-.6-.3-.1-.7-.2-1.2-.2-.4 0-.8.1-1.2.2s-.7.3-1 .6-.5.5-.7.9c-.2.3-.3.7-.3 1.1z"/><path d="m108.1 44c-.2-.4-.5-.7-.9-.9s-.8-.3-1.3-.3c-.2 0-.4 0-.7.1-.2 0-.4.1-.6.2s-.3.2-.4.4-.2.4-.2.6c0 .4.2.7.6.9s.9.4 1.7.5c.5.1.9.2 1.3.4s.7.3 1 .6c.3.2.5.5.7.8s.2.7.2 1.1c0 .6-.1 1.1-.3 1.5s-.5.7-.9 1-.8.4-1.3.5-1 .2-1.4.2c-.7 0-1.5-.1-2.2-.4s-1.3-.7-1.8-1.3l1.4-1.2c.3.4.6.7 1.1 1s1 .4 1.5.4c.2 0 .5 0 .7-.1.2 0 .4-.1.6-.2s.3-.3.4-.4c.1-.2.2-.4.2-.7 0-.5-.2-.8-.7-1-.4-.2-1.1-.4-1.9-.6-.3-.1-.7-.2-1-.3s-.6-.3-.9-.5-.5-.5-.7-.8-.3-.7-.3-1.1c0-.5.1-1 .3-1.4s.5-.7.8-.9.7-.4 1.2-.5c.4-.1.9-.2 1.4-.2.7 0 1.4.1 2 .4.7.3 1.2.7 1.5 1.2z"/><path d="m117.4 44c-.2-.4-.5-.7-.9-.9s-.8-.3-1.3-.3c-.2 0-.4 0-.7.1-.2 0-.4.1-.6.2s-.3.2-.4.4-.2.4-.2.6c0 .4.2.7.6.9s.9.4 1.7.5c.5.1.9.2 1.3.4s.7.3 1 .6c.3.2.5.5.7.8s.2.7.2 1.1c0 .6-.1 1.1-.3 1.5s-.5.7-.9 1-.8.4-1.3.5-1 .2-1.4.2c-.7 0-1.5-.1-2.2-.4s-1.3-.7-1.8-1.3l1.4-1.2c.3.4.6.7 1.1 1s1 .4 1.5.4c.2 0 .5 0 .7-.1.2 0 .4-.1.6-.2s.3-.3.4-.4c.1-.2.2-.4.2-.7 0-.5-.2-.8-.7-1-.4-.2-1.1-.4-1.9-.6-.3-.1-.7-.2-1-.3s-.6-.3-.9-.5-.5-.5-.7-.8-.3-.7-.3-1.1c0-.5.1-1 .3-1.4s.5-.7.8-.9.7-.4 1.2-.5c.4-.1.9-.2 1.4-.2.7 0 1.4.1 2 .4.7.3 1.2.7 1.5 1.2z"/></g></svg>